<svg width="21" height="30" viewBox="0 0 21 30" fill="none" xmlns="http://www.w3.org/2000/svg">
<path d="M0 28.125V1.875C0 1.52679 0.0957259 1.18546 0.276451 0.889255C0.457176 0.59305 0.715758 0.353677 1.02323 0.197953C1.33069 0.042229 1.6749 -0.0236943 2.01727 0.00757692C2.35964 0.0388481 2.68665 0.166079 2.96166 0.375005L20.2503 13.5C21.2499 14.25 21.2499 15.75 20.2503 16.5L2.96166 29.625C2.68665 29.8339 2.35964 29.9612 2.01727 29.9924C1.6749 30.0237 1.33069 29.9578 1.02323 29.802C0.715758 29.6463 0.457176 29.4069 0.276451 29.1107C0.0957259 28.8145 0 28.4732 0 28.125Z" fill="white"/>
</svg>
