<svg width="13" height="13" viewBox="0 0 13 13" fill="none" xmlns="http://www.w3.org/2000/svg">
<path d="M3.57444 4.33333C3.7148 4.33333 3.85072 4.28412 3.95855 4.19427L6.05756 2.44509C6.44835 2.11943 7.04167 2.39732 7.04167 2.90603V10.094C7.04167 10.6027 6.44835 10.8806 6.05756 10.5549L3.95855 8.80573C3.85072 8.71588 3.7148 8.66667 3.57444 8.66667H2.70833C2.11002 8.66667 1.625 8.18166 1.625 7.58333V5.41667C1.625 4.81836 2.11002 4.33333 2.70833 4.33333H3.57444Z" fill="white"/>
<path d="M8.66667 4.875C8.93751 5.14583 9.20834 5.6875 9.20834 6.5C9.20834 7.3125 8.93751 7.85417 8.66667 8.125" stroke="white" stroke-linecap="round" stroke-linejoin="round"/>
<path d="M10.2917 3.25C11.1042 4.0625 11.375 5.41667 11.375 6.5C11.375 7.58333 11.1042 8.9375 10.2917 9.75" stroke="white" stroke-linecap="round" stroke-linejoin="round"/>
</svg>
